<svg xmlns="http://www.w3.org/2000/svg" width="1379" height="179" viewBox="0 0 1379 179" version="1.1"><path d="M 4.580 1.750 C 3.639 4.717, 1.147 22.471, 0.429 31.324 C -0.440 42.032, 0.538 42.770, 6.778 36.117 C 13.835 28.593, 20.475 25.821, 36.914 23.537 L 41.329 22.924 40.652 87.712 C 40.280 123.345, 39.521 155.621, 38.965 159.435 C 38.271 164.206, 37.162 167.410, 35.409 169.708 C 32.245 173.857, 32.606 176.288, 36.512 177.124 C 40.503 177.978, 79.889 178.172, 83.961 177.358 C 88.331 176.484, 88.684 174.763, 85.380 170.431 L 82.583 166.764 81.865 139.132 C 80.808 98.447, 80.838 24, 81.912 24 C 84.574 24, 98.182 27.049, 101.261 28.336 C 103.223 29.155, 107.563 32.340, 110.905 35.413 C 114.248 38.486, 117.497 41, 118.127 41 C 119.447 41, 118.579 21.857, 116.653 8.500 L 115.500 0.500 64 0.481 L 12.500 0.463 63 0.981 L 113.500 1.500 115.126 16 C 116.020 23.975, 116.980 32.663, 117.259 35.307 L 117.767 40.115 112.634 34.666 C 109.810 31.669, 105.602 28.266, 103.281 27.104 C 98.065 24.492, 87.911 22.034, 82.250 22.015 L 78 22 78.049 84.250 C 78.098 147.270, 78.736 166.079, 80.850 166.783 C 81.482 166.994, 82 168.013, 82 169.048 C 82 170.083, 82.900 171.411, 84 172 C 88.783 174.560, 85.324 175, 60.432 175 L 34.864 175 36.953 172.066 C 41.953 165.044, 42.220 162.855, 43.056 122 C 43.490 100.825, 43.880 69.399, 43.922 52.165 L 44 20.829 36.250 21.478 C 31.987 21.834, 25.377 23.036, 21.560 24.149 C 15.415 25.941, 13.832 26.961, 7.737 33.056 C 1.810 38.983, 0.934 39.561, 1.425 37.219 C 1.739 35.724, 2.888 28.200, 3.980 20.500 C 5.072 12.800, 6.218 5.038, 6.528 3.250 C 7.115 -0.141, 5.559 -1.339, 4.580 1.750 M 129 1.559 C 129 2.416, 130.460 4.934, 132.244 7.154 L 135.488 11.191 135.494 83.846 C 135.500 160.311, 135.310 163.947, 130.986 170.020 C 129.894 171.554, 129 173.711, 129 174.815 C 129 176.608, 129.891 176.895, 137.402 177.520 C 148.093 178.411, 225.917 177.586, 228.250 176.557 C 229.213 176.133, 230 175.384, 230 174.893 C 230 174.381, 209.317 174, 181.559 174 C 154.809 174, 132.875 173.607, 132.575 173.121 C 132.276 172.638, 132.672 170.951, 133.454 169.371 C 136.901 162.410, 137.500 149.974, 137.493 85.500 C 137.489 50.850, 137.117 19.474, 136.666 15.776 C 136.127 11.351, 135.018 7.832, 133.423 5.482 C 132.090 3.518, 131 1.714, 131 1.473 C 131 1.232, 142.363 0.906, 156.250 0.749 L 181.500 0.464 155.250 0.232 C 132.045 0.027, 129 0.181, 129 1.559 M 226.297 2.750 C 226.598 4.263, 227.826 12.025, 229.027 20 C 232.368 42.201, 234.461 43.392, 231.550 21.436 C 229.648 7.084, 228.076 0, 226.792 -0 C 226.189 -0, 225.981 1.159, 226.297 2.750 M 253 1.106 C 253 1.714, 254.113 3.534, 255.474 5.151 C 260.472 11.092, 260.500 11.543, 260.500 87 C 260.500 164.080, 260.418 165.309, 254.929 170.568 C 253.318 172.112, 252 173.956, 252 174.668 C 252 177.005, 257.195 177.500, 281.715 177.500 C 303.386 177.500, 306.112 177.317, 307.668 175.761 C 309.320 174.109, 309.296 173.883, 307.195 171.261 C 305.978 169.742, 304.446 167.375, 303.790 166 C 302.167 162.595, 301.413 98.791, 303.023 101 C 304.534 103.074, 322.067 138.254, 324.951 145 C 326.245 148.025, 327.485 149.974, 327.708 149.330 C 328.289 147.653, 321.923 132.694, 313.951 117 C 305.974 101.298, 301.512 94, 299.888 94 C 298.259 94, 299.248 161.248, 300.940 165.500 C 301.596 167.150, 303.080 169.511, 304.237 170.746 C 305.394 171.981, 306.002 173.331, 305.588 173.746 C 304.660 174.676, 255 175.436, 255 174.520 C 255 174.157, 256.358 171.887, 258.017 169.475 C 259.677 167.062, 261.477 162.757, 262.017 159.908 C 263.198 153.684, 263.264 29.041, 262.093 17.894 C 261.454 11.811, 260.671 9.383, 258.186 5.771 C 256.477 3.287, 255.361 0.972, 255.706 0.627 C 256.051 0.282, 255.583 0, 254.667 0 C 253.750 0, 253 0.498, 253 1.106 M 300.250 0.745 C 305.063 0.928, 309 1.441, 309 1.884 C 309 2.327, 308.063 3.538, 306.917 4.575 C 303.427 7.734, 301.892 12.918, 300.426 26.500 C 298.595 43.467, 298.475 78.341, 300.250 77.751 C 301.199 77.436, 301.625 69.887, 302.021 46.418 C 302.583 13.046, 302.556 13.217, 308.508 5.102 C 309.879 3.233, 311 1.321, 311 0.852 C 311 0.383, 306.613 0.093, 301.250 0.206 L 291.500 0.411 300.250 0.745 M 332 1.386 C 332 2.148, 332.672 4.060, 333.494 5.636 C 334.315 7.211, 334.990 9.512, 334.994 10.750 C 334.997 11.988, 335.450 13, 336 13 C 337.678 13, 337.213 4.296, 335.500 3.638 C 333.277 2.785, 333.682 1.200, 336.250 0.706 C 337.877 0.392, 337.600 0.235, 335.250 0.136 C 333.081 0.045, 332 0.461, 332 1.386 M 433 1.652 C 427.667 4.051, 431.018 4.361, 437.644 2.081 C 443.024 0.231, 443.215 0.067, 440 0.073 C 438.075 0.076, 434.925 0.787, 433 1.652 M 486.500 0.476 C 487.050 0.650, 490.797 1.808, 494.827 3.047 C 501.368 5.059, 502.090 5.526, 501.548 7.400 C 501.214 8.555, 500.670 15.350, 500.339 22.500 C 499.650 37.401, 498.980 39.776, 496.697 35.421 C 494.230 30.718, 487.953 25.313, 481.500 22.338 C 476.649 20.101, 474.054 19.566, 467.952 19.549 C 461.421 19.529, 459.509 19.967, 453.755 22.800 C 446.164 26.537, 440.299 32.561, 436.563 40.459 C 422.498 70.190, 426.900 122.732, 445.203 143.578 C 450.589 149.713, 452.544 149.531, 447.492 143.365 C 441.644 136.226, 437.601 127.611, 434.186 115.011 C 431.790 106.170, 431.608 103.987, 431.612 84 C 431.615 64.885, 431.861 61.612, 433.831 54.500 C 438.475 37.726, 444.236 28.989, 453.705 24.356 C 458.289 22.113, 460.619 21.633, 466.887 21.639 C 477.798 21.649, 485.116 25.088, 493.006 33.913 C 497.112 38.505, 499.214 40.183, 499.945 39.453 C 500.890 38.510, 502.034 29.024, 503.357 11.164 L 503.826 4.827 498.663 2.423 C 495.747 1.066, 491.759 0.050, 489.500 0.089 C 487.300 0.127, 485.950 0.301, 486.500 0.476 M 517.596 1.750 C 516.434 5.526, 514.083 22.364, 513.552 30.706 C 512.718 43.827, 514.523 37.665, 517.275 18 L 519.584 1.500 573.612 1.241 L 627.640 0.983 628.877 14.741 C 629.557 22.309, 630.382 30.975, 630.709 34 L 631.305 39.500 626.325 34.872 C 617.107 26.303, 609.349 22.712, 597.250 21.413 L 591 20.742 591.017 83.121 C 591.038 158.675, 591.585 165.695, 597.898 171.407 C 599.054 172.454, 600 173.690, 600 174.155 C 600 175.137, 560.217 175.306, 551.190 174.362 L 545.086 173.724 550.043 168.162 L 555 162.601 555 91.654 L 555 20.707 547.287 21.358 C 536.939 22.233, 529.202 25.928, 520.914 33.951 C 513.522 41.108, 514.776 40.901, 523.500 33.523 C 530.054 27.980, 532.278 26.888, 541.972 24.455 C 548.287 22.870, 548.484 22.880, 550.101 24.877 C 552.916 28.353, 553.219 38.188, 552.490 102.418 L 551.786 164.500 547.797 168.635 C 543.155 173.449, 543.063 176.172, 547.512 177.124 C 551.402 177.956, 594.598 177.956, 598.488 177.124 C 602.446 176.277, 602.856 173.503, 599.535 170.037 C 593.667 163.911, 593.654 163.753, 593.235 90.301 L 592.852 23.102 596.676 23.657 C 603.028 24.578, 612.225 27.065, 615.451 28.733 C 617.123 29.598, 621.277 32.981, 624.682 36.251 C 628.510 39.926, 631.333 41.912, 632.076 41.453 C 633.388 40.642, 633.081 32.779, 630.917 11.750 L 629.707 0 573.921 0 C 521.663 0, 518.101 0.111, 517.596 1.750 M 646 0.804 C 646 1.247, 647.462 3.834, 649.250 6.554 L 652.500 11.500 653 83.167 C 653.275 122.585, 653.767 155.102, 654.094 155.428 C 655.414 156.746, 656.092 65.552, 654.962 38.768 L 653.811 11.500 650.906 6.684 C 649.308 4.035, 648 1.672, 648 1.434 C 648 0.573, 699.895 1.022, 700.430 1.887 C 700.731 2.374, 700.238 3.387, 699.334 4.137 C 695.942 6.949, 694.770 12.341, 693.929 29 C 692.822 50.918, 692.769 115.261, 693.859 114.587 C 694.870 113.962, 703.516 94.637, 704.412 91 C 704.750 89.625, 703.803 90.862, 702.307 93.750 C 700.811 96.638, 699.268 99, 698.878 99 C 697.399 99, 696.881 83.251, 697.185 47.500 L 697.500 10.500 700.250 6.518 C 701.763 4.328, 703 1.965, 703 1.268 C 703 0.274, 696.848 0, 674.500 0 C 658.825 0, 646 0.362, 646 0.804 M 744.954 2.086 C 744.340 3.233, 744.063 4.396, 744.338 4.671 C 744.613 4.946, 745.332 4.247, 745.937 3.118 C 746.928 1.267, 748.139 1.034, 758.268 0.746 L 769.500 0.428 757.785 0.214 C 746.820 0.014, 745.999 0.133, 744.954 2.086 M 788.750 0.706 C 791.547 1.244, 791.548 1.214, 788.431 5.924 C 783.476 13.413, 782.878 17.432, 781.725 51 C 780.437 88.531, 781.727 156.127, 783.771 158.171 C 784.743 159.143, 785 144.521, 785 88.175 L 785 16.950 788.500 10 C 792.795 1.471, 792.910 -0.045, 789.250 0.136 C 786.892 0.253, 786.821 0.334, 788.750 0.706 M 836 1.534 C 836 2.377, 837.594 4.008, 839.543 5.158 C 847.427 9.809, 849.528 19.141, 849.415 49 C 849.339 68.892, 848.963 73.937, 846.165 92.528 C 842.693 115.594, 842.568 116.858, 843.896 115.450 C 844.807 114.484, 847.162 101.004, 848.953 86.500 C 851.067 69.388, 852.200 48.592, 851.846 33.387 C 851.415 14.829, 850.088 10.803, 842.162 4.009 C 837.068 -0.358, 836 -0.787, 836 1.534 M 924.250 0.749 C 935.112 0.910, 943.997 1.370, 943.993 1.771 C 943.990 2.172, 943.093 3.850, 942 5.500 C 940.907 7.150, 940.024 9.400, 940.037 10.500 L 940.061 12.500 941.190 10.500 C 941.812 9.400, 943.373 7.228, 944.660 5.673 C 949.316 0.049, 949.070 -0.022, 925.750 0.228 L 904.500 0.455 924.250 0.749 M 1087.750 0.748 C 1097.237 0.913, 1105 1.329, 1105 1.674 C 1105 2.018, 1103.200 5.422, 1101 9.238 L 1097 16.176 1097.001 42.838 C 1097.003 94.222, 1098.402 165.075, 1099.235 156 C 1099.664 151.325, 1099.750 118.475, 1099.427 83 L 1098.840 18.500 1102.920 9.853 C 1105.164 5.097, 1107 0.934, 1107 0.603 C 1107 0.271, 1098.787 0.101, 1088.750 0.225 L 1070.500 0.450 1087.750 0.748 M 1131.499 1.002 C 1131.158 1.554, 1132.238 3.916, 1133.899 6.252 C 1135.560 8.589, 1137.396 12.525, 1137.979 15 C 1138.908 18.951, 1140.520 69.039, 1141.293 118 C 1141.436 127.075, 1141.644 113.125, 1141.755 87 C 1142.040 19.977, 1140.995 7.209, 1134.962 3.979 C 1133.852 3.386, 1133.208 2.472, 1133.531 1.950 C 1134.226 0.825, 1225.900 0.649, 1227.661 1.769 C 1228.515 2.313, 1234 34.383, 1234 38.833 C 1234 39.168, 1231.188 36.688, 1227.750 33.322 C 1224.313 29.956, 1219.561 26.233, 1217.191 25.050 C 1212.171 22.544, 1200.683 21.018, 1186.750 21.008 L 1177 21 1177 49.500 L 1177 78 1189.818 78 C 1205.080 78, 1210.777 76.595, 1216.955 71.306 L 1221.323 67.567 1220.665 85.034 C 1220.210 97.123, 1220.322 101.973, 1221.031 100.789 C 1221.595 99.848, 1222.315 92.648, 1222.632 84.789 C 1223.113 72.897, 1222.954 70.164, 1221.685 68.500 C 1220.167 66.508, 1220.152 66.509, 1217.818 68.701 C 1212.549 73.651, 1206.390 75.364, 1192.250 75.812 L 1179 76.232 1179 49.616 L 1179 23 1185.750 23.018 C 1195.965 23.045, 1209.553 24.691, 1215.290 26.596 C 1219.197 27.894, 1221.887 29.844, 1226.602 34.797 C 1233.149 41.674, 1236 42.480, 1236 37.455 C 1236 33.988, 1232.147 8.504, 1230.903 3.750 L 1229.923 0 1181.020 0 C 1149.422 0, 1131.899 0.355, 1131.499 1.002 M 1255 1.323 C 1255 2.097, 1255.921 3.901, 1257.047 5.333 C 1262.233 11.925, 1264.414 36.661, 1264.424 89 C 1264.434 140.865, 1262.733 160.398, 1257.401 169.678 C 1254.620 174.517, 1254.409 176, 1256.500 176 C 1257.376 176, 1258 175.090, 1258 173.814 C 1258 172.612, 1258.908 170.663, 1260.017 169.482 C 1263.153 166.143, 1264.900 155.408, 1266.116 132 C 1267.336 108.497, 1266.733 57.008, 1265.008 37.500 C 1263.441 19.784, 1261.252 7.913, 1258.975 4.790 C 1257.889 3.300, 1257 1.765, 1257 1.378 C 1257 0.489, 1327.434 1.888, 1335.500 2.938 C 1338.800 3.367, 1341.651 3.593, 1341.836 3.440 C 1342.020 3.287, 1341.120 2.563, 1339.836 1.831 C 1336.266 -0.203, 1255 -0.690, 1255 1.323 M 991 1.786 C 991 2.294, 994.150 5.508, 998 8.930 L 1005 15.151 1005.102 46.326 C 1005.171 67.216, 1005.506 76.345, 1006.118 74 C 1006.621 72.075, 1007.071 58.186, 1007.119 43.136 L 1007.207 15.772 1001.853 10.308 C 995.888 4.220, 991 0.382, 991 1.786 M 1343 3.452 C 1343 3.700, 1346.801 5.685, 1351.447 7.862 C 1366.117 14.737, 1373.265 23.622, 1376.501 39.004 C 1381.030 60.535, 1375.358 83.075, 1362.439 94.882 C 1350.908 105.420, 1332.301 111, 1308.685 111 L 1300.818 111 1301.175 135.250 C 1301.509 158.028, 1301.668 159.773, 1303.785 164 C 1307.486 171.389, 1311.442 176.560, 1311.842 174.534 C 1312.031 173.582, 1311.047 171.609, 1309.656 170.151 C 1305.038 165.310, 1304.638 162.907, 1304.219 137.470 L 1303.824 113.439 1318.162 112.262 C 1326.048 111.615, 1335.798 110.155, 1339.829 109.017 C 1359.165 103.561, 1371.421 92.745, 1376.922 76.282 C 1379.643 68.138, 1379.917 44.450, 1377.388 35.932 C 1373.363 22.373, 1363.949 9.802, 1354.500 5.366 C 1350.152 3.326, 1343 2.135, 1343 3.452 M 371.797 10.750 C 360.207 25.162, 339.291 56.514, 333.178 68.639 L 330.083 74.778 333.919 82.639 C 339.542 94.166, 363.696 136.752, 371.891 149.589 C 375.784 155.687, 381.689 163.645, 385.013 167.273 L 391.057 173.869 386.279 174.684 C 383.650 175.133, 374.943 175.500, 366.929 175.500 C 352.691 175.500, 352.224 175.431, 346.458 172.482 C 339.927 169.142, 334.153 162.522, 331.951 155.852 C 330.660 151.939, 329.358 150.308, 328.340 151.326 C 327.570 152.097, 334.533 164.978, 337.982 169.162 C 339.610 171.137, 343.092 173.801, 345.721 175.084 C 350.028 177.185, 352.180 177.454, 367.500 177.802 C 394.040 178.404, 396.525 176.813, 386.265 165.785 C 378.445 157.379, 374.219 150.964, 362.029 129 C 356.382 118.825, 348.497 104.875, 344.507 98 C 335.092 81.779, 333 77.566, 333 74.833 C 333 70.672, 356.712 33.171, 370.480 15.558 C 378.873 4.821, 379.420 4, 378.172 4 C 377.651 4, 374.782 7.037, 371.797 10.750 M 418.945 10.338 C 411.349 16.630, 404 24.437, 404 26.214 C 404 26.907, 407.262 24.073, 411.250 19.917 C 415.238 15.762, 420.637 10.909, 423.250 9.133 C 425.863 7.357, 428 5.701, 428 5.452 C 428 3.846, 424.508 5.730, 418.945 10.338 M 732.084 28.614 C 722.208 49.563, 719.603 56.702, 725.811 45.809 C 728.433 41.209, 738.476 19.985, 742.638 10.250 C 743.402 8.462, 743.633 7, 743.151 7 C 742.669 7, 737.689 16.726, 732.084 28.614 M 938.578 14.657 C 938.210 15.616, 937.428 24.073, 936.840 33.450 C 935.613 53.026, 936.452 148.563, 937.920 156.500 C 938.508 159.681, 938.661 140.039, 938.339 102.500 C 938.027 66.029, 938.234 37.791, 938.883 28.549 C 939.459 20.326, 939.777 13.444, 939.589 13.256 C 939.401 13.068, 938.946 13.698, 938.578 14.657 M 331.216 22.750 C 330.159 24.262, 324.672 34.050, 319.021 44.500 C 313.370 54.950, 307.407 65.975, 305.769 69 C 300.892 78.008, 305.358 72.347, 312.474 60.500 C 319.098 49.473, 334.472 20, 333.601 20 C 333.345 20, 332.272 21.238, 331.216 22.750 M 1301 56.364 L 1301 93 1307.451 93 C 1318.449 93, 1323.371 91.428, 1329.279 86.028 C 1332.168 83.387, 1335.649 79.038, 1337.014 76.363 C 1339.241 72.001, 1339.531 70.053, 1339.838 57.440 C 1340.202 42.460, 1339.060 35, 1336.402 35 C 1335.566 35, 1335.126 34.605, 1335.424 34.123 C 1336.587 32.241, 1331.238 26.430, 1325.764 23.631 C 1321.024 21.207, 1318.502 20.643, 1310.541 20.227 L 1301 19.727 1301 56.364 M 174.510 22.114 C 174.211 22.892, 174.087 35.897, 174.233 51.014 L 174.500 78.500 184 78.187 C 197.774 77.733, 205.205 76.256, 210.453 72.928 L 215 70.044 215 86.606 L 215 103.168 210.961 99.969 C 205.909 95.968, 202.613 95.262, 187 94.839 L 174.500 94.500 174.235 123.935 C 174.070 142.150, 174.342 153.742, 174.947 154.347 C 177.082 156.482, 208.003 156.323, 207.999 154.178 C 207.998 153.805, 201.585 153.499, 193.749 153.497 C 185.912 153.495, 178.713 153.172, 177.750 152.778 C 176.144 152.122, 176 149.830, 176 124.908 L 176 97.752 190.907 98.176 C 205.362 98.587, 205.940 98.686, 209.945 101.462 C 212.988 103.571, 214.370 104.030, 215.193 103.207 C 216.453 101.947, 218.658 73.158, 217.688 70.629 C 216.855 68.459, 213.852 68.571, 209.807 70.923 C 205.900 73.194, 197.991 74.772, 185.250 75.821 L 176 76.582 176 49.791 L 176 23 183.750 23.036 C 196.601 23.095, 210.531 24.684, 214.433 26.535 C 216.452 27.493, 220.995 31.140, 224.528 34.639 C 231.279 41.324, 234.623 43.228, 230.135 37.832 C 222.332 28.452, 218.442 25.388, 212.062 23.597 C 203.360 21.156, 175.303 20.048, 174.510 22.114 M 872.657 28.750 C 871.481 43.891, 870.766 72.488, 871.582 71.711 C 872.337 70.992, 874.767 39.100, 874.931 27.750 L 875 23 886.664 23 L 898.329 23 897.672 93.575 L 897.016 164.151 893.914 168.470 C 890.376 173.397, 890.404 176.105, 894.005 177.106 C 897.255 178.011, 938.745 178.011, 941.995 177.106 C 945.506 176.129, 945.626 173.511, 942.374 168.818 C 939.110 164.108, 937.934 165.203, 940.948 170.146 C 942.072 171.991, 942.994 173.838, 942.996 174.250 C 943.001 175.186, 903.302 175.078, 896.500 174.123 C 892.541 173.567, 891.951 173.264, 893.666 172.669 C 899.097 170.786, 899.963 158.388, 899.984 82.250 L 900 21 886.629 21 L 873.258 21 872.657 28.750 M 1030.502 22.750 C 1030.111 23.712, 1029.397 34.625, 1028.917 47 C 1027.247 89.987, 1023.522 119.902, 1016.431 147.267 C 1013.214 159.679, 1007.695 167.267, 997.719 172.988 C 993.258 175.546, 992.878 175.983, 995.100 175.991 C 1000.559 176.010, 1010.738 165.695, 1016.391 154.415 C 1022.126 142.972, 1027.640 104.782, 1030.457 57 C 1031.316 42.425, 1032.279 28.813, 1032.597 26.750 L 1033.176 23 1046.208 23 L 1059.239 23 1058.841 93.481 L 1058.443 163.962 1054.547 167.952 C 1052.403 170.147, 1048.816 172.833, 1046.575 173.922 L 1042.500 175.900 1046.027 175.950 C 1050.752 176.017, 1053.226 174.086, 1057.182 167.241 L 1060.500 161.500 1060.806 91.250 L 1061.111 21 1046.162 21 C 1032.864 21, 1031.135 21.193, 1030.502 22.750 M 1304.750 23.563 C 1304.338 23.987, 1304 39.333, 1304 57.667 L 1304 91 1307.250 90.992 C 1313.526 90.978, 1323.486 88.863, 1326.735 86.855 C 1333.646 82.584, 1337.957 70.875, 1337.984 56.299 C 1338.004 46.175, 1336.549 38.926, 1333.272 32.822 C 1331.247 29.050, 1329.765 27.710, 1325.630 25.912 C 1320.401 23.638, 1306.229 22.044, 1304.750 23.563 M 397.517 35.967 C 394.705 41.515, 394.582 42, 395.983 42 C 396.524 42, 398.099 39.765, 399.483 37.033 C 402.295 31.485, 402.418 31, 401.017 31 C 400.476 31, 398.901 33.235, 397.517 35.967 M 393.035 46.500 C 391.266 50.911, 388.986 63.548, 389.094 68.338 C 389.177 72.015, 389.348 71.685, 390.564 65.500 C 391.321 61.650, 392.682 55.736, 393.589 52.358 C 395.400 45.615, 395.016 41.560, 393.035 46.500 M 714.794 65.831 C 707.458 82.118, 705.858 86, 706.477 86 C 707.162 86, 716.117 67.872, 718.929 60.794 C 723.292 49.814, 720.448 53.278, 714.794 65.831 M 742.612 59.780 C 737.568 69.733, 697.646 156.778, 695.376 162.773 C 694.069 166.223, 693.022 169.598, 693.049 170.273 C 693.104 171.659, 693.694 170.420, 722.529 108.380 C 741.507 67.549, 743.571 63.557, 744.248 66.380 C 744.659 68.096, 744.782 90.425, 744.521 116 C 744.182 149.206, 744.345 161.499, 745.091 159 C 746.609 153.911, 747.610 55, 746.142 55 C 745.533 55, 743.944 57.151, 742.612 59.780 M 870.645 77.765 C 870.097 78.652, 869.467 83.544, 866.495 110 C 862.940 141.648, 857.157 159.998, 847.909 168.972 C 843.501 173.250, 840.546 174.484, 828.500 177.075 L 820.500 178.796 826.712 178.898 C 839.778 179.112, 851.103 171.671, 857.494 158.672 C 863.579 146.294, 867.299 127.850, 870.526 94.043 C 871.982 78.792, 872.006 75.563, 870.645 77.765 M 387.625 82.125 C 386.786 86.322, 387.007 96.901, 388 100 C 388.506 101.581, 388.837 98.183, 388.900 90.750 C 388.955 84.287, 388.831 79, 388.625 79 C 388.419 79, 387.969 80.406, 387.625 82.125 M 1002.804 88 C 1002.439 89.925, 1001.613 94.875, 1000.969 99 C 1000.324 103.125, 998.931 110.277, 997.874 114.892 C 996.817 119.508, 996.156 123.489, 996.406 123.739 C 997.068 124.401, 1000.695 112.206, 1002.531 103.142 C 1003.403 98.841, 1003.970 92.888, 1003.791 89.911 C 1003.492 84.910, 1003.417 84.765, 1002.804 88 M 1178.557 97.223 C 1177.238 99.105, 1177 103.700, 1177 127.223 L 1177 155 1187.750 154.992 C 1212.125 154.975, 1221.690 152.253, 1232.031 142.389 C 1235.314 139.258, 1237.978 137.327, 1237.950 138.098 C 1237.923 138.869, 1236.208 147.150, 1234.140 156.500 L 1230.380 173.500 1192.141 174.132 C 1171.109 174.480, 1153.624 175.043, 1153.284 175.382 C 1152.945 175.722, 1170.631 176, 1192.587 176 L 1232.508 176 1235.758 160.250 C 1239.332 142.935, 1239.900 135, 1237.567 135 C 1236.779 135, 1234.454 137.050, 1232.402 139.555 C 1225.004 148.582, 1216.406 151.442, 1193.234 152.581 L 1178.967 153.282 1179.234 125.891 L 1179.500 98.500 1195.082 98.225 L 1210.663 97.951 1214.485 100.988 C 1219.162 104.705, 1220.408 104.079, 1216.484 99.983 C 1212.532 95.859, 1208.590 95.012, 1193.307 95.006 C 1180.804 95, 1180.032 95.116, 1178.557 97.223 M 389.326 116.548 C 390.104 127.061, 400.115 147.396, 410.492 159.542 C 419.615 170.221, 436.746 179.108, 447.773 178.883 L 453.500 178.766 448.247 177.891 C 435.667 175.795, 425.765 170.764, 416.133 161.574 C 405.207 151.151, 397.295 137.453, 392.925 121.395 C 389.994 110.623, 388.765 108.968, 389.326 116.548 M 832.951 133.122 C 828.227 137.909, 827.798 138.632, 830.062 137.982 C 834.690 136.655, 836.690 135.163, 837.963 132.089 C 840.071 127.001, 838.717 127.280, 832.951 133.122 M 961.593 139.119 C 958.704 146.912, 957.352 158.744, 958.807 163.500 C 959.846 166.896, 959.532 168.355, 961.989 148.699 C 962.594 143.858, 963.599 138.780, 964.221 137.414 C 965.247 135.162, 965.779 134.980, 969.926 135.465 L 974.500 135.999 970.500 134.026 C 968.300 132.940, 965.990 132.041, 965.366 132.026 C 964.742 132.012, 963.044 135.203, 961.593 139.119 M 808.390 133.765 C 805.038 135.983, 801.941 150.864, 802.097 164 C 802.155 168.904, 803.677 162.899, 804.378 155 C 805.161 146.175, 807.376 137.180, 809.204 135.404 C 810.247 134.391, 811.282 134.435, 814.500 135.629 C 820.308 137.783, 824 138.909, 824 138.525 C 824 138.341, 822.007 137.022, 819.572 135.595 C 815.240 133.056, 810.607 132.298, 808.390 133.765 M 989.109 134.368 C 986.863 137.075, 982.478 138.226, 978.545 137.140 C 975.852 136.396, 974.977 136.430, 975.256 137.267 C 976.001 139.504, 981.830 140.174, 985.479 138.443 C 989.055 136.746, 991.644 134.311, 990.785 133.452 C 990.510 133.177, 989.756 133.589, 989.109 134.368 M 230.116 140.382 C 227.750 142.792, 222.665 146.491, 218.815 148.601 C 214.965 150.712, 212.271 152.590, 212.828 152.776 C 214.642 153.381, 223.810 148.110, 229.070 143.437 C 231.896 140.928, 234.401 139.068, 234.637 139.304 C 234.873 139.539, 233.970 145.305, 232.630 152.116 C 229.387 168.603, 228.804 173, 229.858 173 C 231.121 173, 236.871 144.138, 236.980 137.250 C 237.018 134.836, 234.375 136.042, 230.116 140.382 M 497 145.143 C 493.975 146.852, 489.526 149.029, 487.114 149.982 C 484.701 150.934, 483.135 151.965, 483.633 152.273 C 485.045 153.146, 494.841 149.359, 498.613 146.481 C 500.483 145.056, 502.395 144.126, 502.863 144.415 C 504.247 145.271, 504.888 155.218, 503.900 160.507 C 503.324 163.590, 501.968 166.469, 500.242 168.271 C 496.810 171.855, 487.057 176.572, 480.490 177.825 L 475.500 178.776 480.783 178.888 C 489.492 179.073, 500.001 172.690, 504.271 164.624 C 507.883 157.800, 507.079 141.904, 503.128 142.018 C 502.782 142.028, 500.025 143.434, 497 145.143 M 454.492 150.987 C 456.302 153.916, 474.138 156.361, 480.036 154.489 C 484.113 153.195, 481.764 152.249, 475.684 152.737 C 471.687 153.058, 466.751 152.649, 462.237 151.622 C 453.857 149.716, 453.698 149.703, 454.492 150.987 M 785.546 163.250 C 786.670 166.966, 791.405 175.284, 791.771 174.186 C 791.959 173.624, 790.730 170.427, 789.042 167.082 C 785.933 160.924, 784.301 159.135, 785.546 163.250 M 740.250 167.760 C 736.330 173.526, 736.167 175.733, 739.565 177.025 C 742.357 178.086, 784.035 178.365, 787.835 177.348 C 793.717 175.772, 785.887 175.030, 763.250 175.015 C 749.913 175.007, 739 174.765, 739 174.479 C 739 174.192, 740.164 172.198, 741.587 170.048 C 743.009 167.898, 744.022 165.428, 743.837 164.559 C 743.614 163.511, 742.404 164.591, 740.250 167.760 M 649.783 168.750 C 648.944 169.713, 647.759 171.465, 647.150 172.645 C 644.994 176.820, 647.617 177.472, 667.932 177.808 C 688.020 178.141, 692 177.495, 692 173.902 C 692 172.018, 691.797 171.923, 690.347 173.128 C 688.479 174.678, 660.303 175.722, 652.384 174.535 L 647.871 173.858 650.486 170.429 C 653.148 166.940, 652.569 165.557, 649.783 168.750 M 804 168.845 C 804 171.235, 806.450 173.397, 812.018 175.923 C 816.846 178.113, 819 178.494, 819 177.158 C 819 176.695, 817.242 175.790, 815.093 175.146 C 812.899 174.489, 809.842 172.446, 808.123 170.488 C 804.630 166.509, 804 166.258, 804 168.845 M 1099 167.888 C 1099 169.049, 1107.175 175.158, 1107.840 174.493 C 1108.586 173.748, 1104.814 169.955, 1101.752 168.372 C 1100.239 167.589, 1099 167.371, 1099 167.888 M 962 171.943 C 962 173.462, 966.243 176, 968.782 176 C 971.900 176, 970.725 174.330, 966.309 172.485 C 962.119 170.734, 962 170.719, 962 171.943 M 1141 175 C 1141 175.550, 1143.052 176, 1145.559 176 C 1148.344 176, 1149.878 175.611, 1149.500 175 C 1149.160 174.450, 1147.109 174, 1144.941 174 C 1142.773 174, 1141 174.450, 1141 175 M 1071.250 175.743 C 1075.513 175.931, 1082.487 175.931, 1086.750 175.743 C 1091.013 175.556, 1087.525 175.402, 1079 175.402 C 1070.475 175.402, 1066.987 175.556, 1071.250 175.743 M 1281.292 175.742 C 1285.027 175.935, 1290.877 175.934, 1294.292 175.739 C 1297.706 175.545, 1294.650 175.387, 1287.500 175.389 C 1280.350 175.390, 1277.556 175.550, 1281.292 175.742" stroke="none" fill="#eee3cb" fill-rule="evenodd"/><path d="M 6.480 3.500 C 6.197 5.150, 5.072 12.800, 3.980 20.500 C 2.888 28.200, 1.739 35.724, 1.425 37.219 C 0.934 39.561, 1.810 38.983, 7.737 33.056 C 13.832 26.961, 15.415 25.941, 21.560 24.149 C 25.377 23.036, 31.987 21.834, 36.250 21.478 L 44 20.829 43.922 52.165 C 43.880 69.399, 43.490 100.825, 43.056 122 C 42.220 162.855, 41.953 165.044, 36.953 172.066 L 34.864 175 60.432 175 C 85.324 175, 88.783 174.560, 84 172 C 82.900 171.411, 82 170.083, 82 169.048 C 82 168.013, 81.482 166.994, 80.850 166.783 C 78.736 166.079, 78.098 147.270, 78.049 84.250 L 78 22 82.250 22.015 C 87.911 22.034, 98.065 24.492, 103.281 27.104 C 105.602 28.266, 109.896 31.756, 112.825 34.858 C 117.203 39.496, 118.057 40.055, 117.626 38 C 117.338 36.625, 116.327 27.919, 115.379 18.653 C 114.395 9.032, 113.194 1.644, 112.578 1.429 C 111.985 1.221, 87.987 0.928, 59.248 0.776 L 6.996 0.500 6.480 3.500 M 156.250 0.749 C 142.363 0.906, 131 1.270, 131 1.558 C 131 1.845, 131.952 3.369, 133.117 4.944 C 134.281 6.518, 135.658 9.763, 136.176 12.153 C 136.695 14.544, 137.368 42.825, 137.672 75 C 138.287 140.120, 137.466 161.460, 134.081 168.302 C 132.984 170.518, 132.319 172.707, 132.602 173.166 C 132.886 173.625, 154.804 173.998, 181.309 173.995 L 229.500 173.990 229.777 169.245 C 229.929 166.635, 231.181 158.927, 232.559 152.116 C 233.938 145.305, 234.873 139.539, 234.637 139.304 C 234.401 139.068, 231.865 140.955, 229.002 143.498 C 223.681 148.224, 217.006 151.782, 209 154.162 C 204.187 155.593, 178.864 156.060, 175.735 154.776 C 174.096 154.103, 173.989 151.933, 174.235 124.276 L 174.500 94.500 187 94.839 C 202.613 95.262, 205.909 95.968, 210.961 99.969 L 215 103.168 215 86.606 L 215 70.044 210.453 72.928 C 205.205 76.256, 197.774 77.733, 184 78.187 L 174.500 78.500 174.500 50 L 174.500 21.500 190.072 21.627 C 212.995 21.815, 219.903 24.292, 227.678 35.115 C 231.360 40.240, 234 41.420, 234 37.941 C 234 36.809, 233.582 36.140, 233.072 36.456 C 231.825 37.226, 231.322 35.330, 229.499 23 C 228.646 17.225, 227.463 9.688, 226.871 6.250 L 225.795 0 203.647 0.232 C 191.466 0.360, 170.137 0.592, 156.250 0.749 M 255.789 0.497 C 255.399 0.914, 256.477 3.287, 258.186 5.771 C 260.671 9.383, 261.454 11.811, 262.093 17.894 C 263.264 29.041, 263.198 153.684, 262.017 159.908 C 261.477 162.757, 259.677 167.062, 258.017 169.475 C 256.358 171.887, 255 174.157, 255 174.520 C 255 175.436, 304.660 174.676, 305.588 173.746 C 306.002 173.331, 305.394 171.981, 304.237 170.746 C 303.080 169.511, 301.596 167.150, 300.940 165.500 C 299.248 161.248, 298.259 94, 299.888 94 C 303.361 94, 329.144 145.576, 327.636 149.506 C 327.362 150.219, 327.913 151.006, 328.860 151.253 C 329.807 151.501, 331.183 153.526, 331.919 155.753 C 334.151 162.519, 339.894 169.126, 346.460 172.482 L 352.363 175.500 367.931 175.244 C 376.494 175.104, 385.191 174.726, 387.257 174.405 L 391.014 173.822 384.992 167.250 C 381.679 163.635, 375.784 155.687, 371.891 149.589 C 363.684 136.733, 339.539 94.159, 333.902 82.605 L 330.050 74.709 334.140 66.848 C 341.878 51.974, 368.069 13.978, 376.235 5.780 L 379.970 2.030 377.235 1.295 C 373.445 0.275, 335.367 0.308, 334.339 1.332 C 333.879 1.789, 334.290 2.739, 335.252 3.442 C 337.137 4.821, 337.763 12.411, 336.077 13.452 C 335.569 13.766, 334.842 15.480, 334.461 17.261 C 332.282 27.446, 303.264 78, 299.598 78 C 298.391 78, 299.641 23.836, 300.982 18 C 301.551 15.525, 302.244 12.496, 302.523 11.268 C 302.801 10.041, 304.432 7.438, 306.148 5.485 C 307.863 3.531, 309.044 1.711, 308.773 1.440 C 307.939 0.605, 256.546 -0.309, 255.789 0.497 M 436.219 2.478 C 422.433 7.130, 407.629 20.824, 400.021 35.961 C 391.733 52.451, 388.233 71.177, 389.082 94.500 C 389.729 112.251, 392.079 122.808, 398.461 136.622 C 408.165 157.626, 424.751 172.384, 444 177.141 C 447.402 177.982, 455.221 178.500, 464.500 178.500 C 481.322 178.500, 487.669 177.096, 495.885 171.558 C 502.648 167, 504.363 163.352, 504.259 153.748 C 504.212 149.362, 503.722 145.322, 503.171 144.771 C 502.502 144.102, 501.015 144.650, 498.692 146.421 C 495.025 149.218, 485.082 153.169, 483.762 152.353 C 483.334 152.089, 482.281 152.576, 481.421 153.436 C 477.548 157.309, 455.445 154.418, 454.259 149.884 C 453.958 148.732, 453.169 148.105, 452.396 148.402 C 450.395 149.169, 445.141 144.286, 440.889 137.707 C 428.594 118.684, 424.587 79.995, 432.102 52.874 C 436.498 37.010, 442.871 28.158, 453.755 22.800 C 459.509 19.967, 461.421 19.529, 467.952 19.549 C 474.054 19.566, 476.649 20.101, 481.500 22.338 C 487.953 25.313, 494.230 30.718, 496.697 35.421 C 498.980 39.776, 499.650 37.401, 500.339 22.500 C 500.670 15.350, 501.212 8.562, 501.544 7.415 C 502.074 5.583, 501.317 5.039, 495.324 2.942 C 489.029 0.740, 486.756 0.534, 466 0.288 C 444.379 0.031, 443.216 0.116, 436.219 2.478 M 758.092 0.910 L 746.683 1.500 737.001 22.500 C 726.882 44.446, 723.410 51, 721.901 51 C 721.406 51, 721 52.047, 721 53.328 C 721 57.462, 708.096 86, 706.227 86 C 705.812 86, 704.960 88.137, 704.333 90.750 C 703.706 93.362, 701.012 100, 698.347 105.500 L 693.500 115.500 693.226 83 C 693.075 65.125, 693.361 41.948, 693.860 31.495 C 694.780 12.253, 695.821 7.050, 699.334 4.137 C 700.238 3.387, 700.731 2.374, 700.430 1.887 C 699.892 1.016, 648 0.576, 648 1.442 C 648 1.685, 649.736 4.723, 651.857 8.192 L 655.714 14.500 655.460 83.023 C 655.185 157.252, 654.740 164.852, 650.337 170.624 L 647.871 173.858 652.384 174.535 C 659.593 175.616, 688.717 174.683, 690.072 173.328 C 690.717 172.684, 691.831 172.382, 692.549 172.657 C 693.425 172.993, 693.692 172.539, 693.362 171.275 C 692.603 168.373, 696.093 160.093, 718.971 110.530 C 743.559 57.259, 744.665 55, 746.142 55 C 746.947 55, 747.098 68.798, 746.695 105.250 C 746.104 158.612, 745.603 164.536, 741.147 170.793 C 739.966 172.452, 739 174.077, 739 174.404 C 739 174.732, 749.830 175, 763.066 175 C 778.400 175, 787.864 175.392, 789.151 176.081 C 790.262 176.676, 791.362 176.972, 791.594 176.739 C 791.827 176.507, 790.438 173.287, 788.508 169.585 C 786.035 164.841, 785.182 162.124, 785.618 160.387 C 786.054 158.647, 785.852 158.006, 784.930 158.211 C 784.109 158.392, 783.352 157.014, 782.891 154.500 C 781.528 147.056, 780.779 67.194, 781.846 43 C 782.949 17.984, 783.876 12.808, 788.506 5.811 C 789.960 3.614, 791.004 1.686, 790.825 1.527 C 789.998 0.790, 768.325 0.382, 758.092 0.910 M 842.162 3.904 C 850.059 10.851, 851.407 14.898, 851.850 33 C 852.697 67.618, 846.085 119.514, 840.128 125 C 839.233 125.825, 838.641 127.489, 838.813 128.698 C 839.582 134.104, 833.792 138.250, 825.476 138.250 C 822.649 138.250, 819.297 137.694, 818.028 137.015 C 813.606 134.649, 810.174 134.085, 808.976 135.528 C 806.178 138.900, 803.228 157.072, 804.435 163.504 C 805.305 168.144, 810.165 173.573, 814.800 175.084 C 816.835 175.747, 818.809 176.767, 819.186 177.351 C 819.991 178.594, 832.426 176.756, 839.490 174.349 C 853.724 169.499, 862.036 149.691, 866.495 110 C 867.329 102.575, 868.475 92.450, 869.042 87.500 C 869.705 81.711, 870.602 78.098, 871.558 77.374 C 872.758 76.464, 872.828 75.693, 871.924 73.374 C 870.829 70.564, 871.171 49.279, 872.634 29.250 L 873.237 21 886.618 21 L 900 21 899.984 82.250 C 899.963 158.388, 899.097 170.786, 893.666 172.669 C 891.951 173.264, 892.541 173.567, 896.500 174.123 C 902.743 174.999, 937.693 175.189, 940.776 174.363 L 943.052 173.753 941.159 170.545 C 937.279 163.969, 936.502 150.276, 936.501 88.500 C 936.500 30.516, 937.072 15.945, 939.438 13.735 C 940.131 13.088, 940.493 11.776, 940.243 10.819 C 939.992 9.863, 940.787 7.463, 942.008 5.487 C 943.229 3.511, 944.039 1.706, 943.808 1.475 C 943.577 1.244, 919.563 0.773, 890.444 0.429 L 837.500 -0.197 842.162 3.904 M 998.856 7.586 L 1007.177 15.500 1007.220 40.500 C 1007.262 65.578, 1005.747 85.266, 1002.391 103.230 C 997.916 127.185, 988.807 141.311, 979.086 139.367 C 977.296 139.009, 975.531 137.992, 975.165 137.108 C 974.712 136.012, 973.023 135.426, 969.863 135.269 C 965.639 135.058, 965.135 135.280, 964.195 137.769 C 962.658 141.834, 962.211 144.439, 961.017 156.259 C 960.419 162.177, 959.688 167.649, 959.393 168.419 C 959.061 169.283, 959.744 170.098, 961.178 170.547 C 962.455 170.948, 965.975 172.415, 969 173.809 C 977.179 177.575, 988.380 177.539, 996.160 173.720 C 1006.693 168.549, 1013.074 160.222, 1016.431 147.267 C 1023.522 119.902, 1027.247 89.987, 1028.917 47 C 1029.397 34.625, 1030.111 23.712, 1030.502 22.750 C 1031.135 21.193, 1032.864 21, 1046.162 21 L 1061.111 21 1060.806 91.278 L 1060.500 161.556 1056.750 167.849 C 1054.688 171.311, 1053 174.358, 1053 174.621 C 1053 175.427, 1102.786 174.551, 1103.606 173.729 C 1104.029 173.305, 1102.958 171.730, 1101.226 170.229 L 1098.077 167.500 1097.415 92 L 1096.753 16.500 1100.993 9.199 C 1103.324 5.184, 1105.010 1.676, 1104.739 1.405 C 1104.468 1.134, 1078.661 0.633, 1047.391 0.292 L 990.535 -0.328 998.856 7.586 M 519.554 2.250 C 519.343 2.938, 518.187 10.677, 516.985 19.448 C 515.783 28.220, 514.406 36.432, 513.925 37.698 C 513.443 38.964, 513.319 40, 513.647 40 C 513.976 40, 517.198 37.237, 520.808 33.861 C 529.310 25.908, 537.126 22.217, 547.287 21.358 L 555 20.707 555 91.654 L 555 162.601 550.043 168.162 L 545.086 173.724 551.190 174.362 C 560.217 175.306, 600 175.137, 600 174.155 C 600 173.690, 599.054 172.454, 597.898 171.407 C 591.585 165.695, 591.038 158.675, 591.017 83.121 L 591 20.742 597.250 21.413 C 609.349 22.712, 617.107 26.303, 626.325 34.872 L 631.305 39.500 630.709 34 C 630.382 30.975, 629.558 22.313, 628.878 14.750 L 627.642 1 573.790 1 C 531.579 1, 519.854 1.270, 519.554 2.250 M 1133.541 1.934 C 1133.181 2.515, 1133.961 3.481, 1135.273 4.078 C 1138.761 5.668, 1140.116 10.650, 1141.066 25.374 C 1142.191 42.807, 1142.175 122.877, 1141.042 145.254 C 1140.146 162.949, 1139.725 164.951, 1135.573 171.260 L 1133.757 174.019 1182.068 173.760 L 1230.378 173.500 1234.139 156.500 C 1236.208 147.150, 1237.923 138.869, 1237.950 138.098 C 1237.978 137.327, 1235.314 139.258, 1232.031 142.389 C 1221.690 152.253, 1212.125 154.975, 1187.750 154.992 L 1177 155 1177 125 L 1177 95 1191.750 95.006 C 1209.046 95.012, 1212.764 95.828, 1216.887 100.524 C 1218.566 102.436, 1220.149 104, 1220.407 104 C 1220.664 104, 1220.662 102.538, 1220.403 100.750 C 1220.143 98.963, 1220.284 90.698, 1220.716 82.384 L 1221.500 67.268 1217.104 71.139 C 1210.931 76.574, 1205.258 78, 1189.818 78 L 1177 78 1177 49.500 L 1177 21 1186.750 21.008 C 1200.683 21.018, 1212.171 22.544, 1217.191 25.050 C 1219.561 26.233, 1224.313 29.956, 1227.750 33.322 C 1231.188 36.688, 1234 39.168, 1234 38.833 C 1234 36.647, 1228.728 2.403, 1228.330 2 C 1227.272 0.930, 1134.201 0.865, 1133.541 1.934 M 1257 1.540 C 1257 1.838, 1257.889 3.300, 1258.975 4.790 C 1261.252 7.913, 1263.441 19.784, 1265.008 37.500 C 1266.733 57.008, 1267.336 108.497, 1266.116 132 C 1264.900 155.408, 1263.153 166.143, 1260.017 169.482 C 1257.427 172.238, 1257.464 173.695, 1260.146 174.546 C 1262.771 175.379, 1308.939 175.394, 1309.771 174.562 C 1310.098 174.235, 1309.369 172.737, 1308.150 171.234 C 1306.932 169.730, 1304.944 166.475, 1303.733 164 C 1301.684 159.813, 1301.506 157.811, 1301.175 135.250 L 1300.818 111 1308.685 111 C 1340.600 111, 1362.457 101.135, 1371.476 82.658 C 1376.187 73.006, 1378 65.281, 1378 54.855 C 1378 31.162, 1370.089 16.645, 1352.730 8.483 C 1344.822 4.765, 1338.726 3.732, 1314.500 2.006 C 1299.801 0.958, 1257 0.612, 1257 1.540 M 1301 56.500 L 1301 93.273 1310.450 92.778 C 1322.786 92.133, 1329.784 88.986, 1334.135 82.128 C 1338.762 74.832, 1340.001 69.114, 1339.994 55.068 C 1339.988 41.493, 1338.824 35, 1336.394 35 C 1335.562 35, 1335.126 34.605, 1335.424 34.123 C 1336.587 32.241, 1331.238 26.430, 1325.764 23.631 C 1321.024 21.207, 1318.502 20.643, 1310.541 20.227 L 1301 19.727 1301 56.500" stroke="none" fill="#441505" fill-rule="evenodd"/></svg>